<?xml version="1.0" encoding="utf-8"?>
<!-- Generator: Adobe Illustrator 19.2.1, SVG Export Plug-In . SVG Version: 6.00 Build 0)  -->
<svg version="1.1" id="Layer_1" xmlns="http://www.w3.org/2000/svg" xmlns:xlink="http://www.w3.org/1999/xlink" x="0px" y="0px"
	 viewBox="0 0 128 150" style="enable-background:new 0 0 128 150;" xml:space="preserve">
<style type="text/css">
	.st0{display:none;fill:none;stroke:#FFFFFF;stroke-width:2;stroke-linecap:round;stroke-miterlimit:10;}
	.st1{fill:#5CDBA9;}
	.st2{fill:#5CDBFF;}
	.st3{fill:#42C18E;}
	.st4{fill:#4DC0FF;}
	.st5{fill:#459571;}
	.st6{fill:#457BA4;}
	.st7{fill:#1A9DED;}
	.st8{fill:#1A71ED;}
	.st9{fill:#58595B;}
	.st10{fill:#F9D35B;}
	.st11{fill:#414042;}
	.st12{opacity:0.4;fill:#414042;}
	.st13{fill:#EDDABB;}
	.st14{fill:#DECDB1;}
	.st15{fill:#F8E7D1;}
	.st16{fill:#C4DFED;}
	.st17{fill:#DEF8FF;}
	.st18{fill:#D1F1FF;}
	.st19{fill:#585963;}
	.st20{fill:#FF868A;}
	.st21{fill:#FF9296;}
	.st22{fill:#EC8287;}
	.st23{fill:#272D38;}
	.st24{fill:#F2F2F2;}
	.st25{fill:#59D6D6;}
	.st26{fill:#56C681;}
	.st27{clip-path:url(#SVGID_2_);fill:#E6E6E6;}
	.st28{fill:#54CBCB;}
	.st29{fill:#52BC7A;}
	.st30{fill:#FFD900;}
	.st31{fill:#FFDE00;}
	.st32{fill:#FFA400;}
	.st33{fill:#47413A;}
	.st34{fill:#FFD16A;}
	.st35{fill:#FF888A;}
	.st36{fill:#E1E2E3;}
	.st37{fill:#45AEFF;}
	.st38{fill:#FFC749;}
	.st39{fill:#FF6A71;}
	.st40{fill:#B7B9BB;}
	.st41{fill:#4585FF;}
	.st42{fill:#52597A;}
	.st43{fill:#699BFF;}
	.st44{fill:#64428F;}
	.st45{fill:#FFFFFF;}
	.st46{fill:#5C8BFF;}
	.st47{fill:#D9D9D9;}
	.st48{fill:#49A86E;}
	.st49{fill:#F020D4;}
	.st50{fill:#B363E7;}
	.st51{fill:#FFD684;}
	.st52{fill:#D420C1;}
	.st53{fill:#FFB876;}
	.st54{fill:#A14DD8;}
	.st55{fill:#8248AA;}
	.st56{fill:#77675D;}
	.st57{fill:#C7AB91;}
	.st58{fill:#B59D84;}
	.st59{fill:#675A51;}
	.st60{fill:#9E8774;}
	.st61{fill:#D4B699;}
	.st62{fill:#554650;}
	.st63{fill:#A47C50;}
	.st64{fill:#BDB096;}
	.st65{fill:#BF956C;}
	.st66{fill:#594A42;}
	.st67{fill:#7C37A3;}
	.st68{fill:#733789;}
	.st69{fill:#94C969;}
	.st70{fill:#70B339;}
	.st71{fill:#AF4FE4;}
	.st72{fill:#CCCECF;}
	.st73{fill:#39C24A;}
	.st74{fill:#4EE94A;}
	.st75{fill:#ECEDED;}
	.st76{fill:#559055;}
	.st77{fill:#C766E5;}
	.st78{fill:#AC33D0;}
	.st79{fill:#E4E5E5;}
	.st80{fill:#F6AB40;}
	.st81{fill:#754C29;}
	.st82{fill:#A2A4A7;}
	.st83{opacity:0.3;fill:#FFFFFF;}
	.st84{fill:#755941;}
	.st85{fill:#5AF1FF;}
	.st86{fill:#91FFFF;}
	.st87{fill:#DFB48C;}
	.st88{fill:#537C6B;}
	.st89{fill:#FFD349;}
	.st90{fill:#FFDF71;}
	.st91{fill:#FFE98C;}
	.st92{fill:#D56A5C;}
	.st93{fill:#A4815D;}
	.st94{fill:#B2594E;}
	.st95{fill:#FFD713;}
	.st96{fill:#ECEDDE;}
	.st97{fill:#DFDCCA;}
	.st98{fill:#F0EDDE;}
	.st99{fill:#6D6E71;}
	.st100{fill:#656669;}
	.st101{fill:#E75C54;}
	.st102{fill:#FFA34D;}
	.st103{fill:#56A86C;}
	.st104{fill:#56B2F4;}
	.st105{fill:#FFD569;}
	.st106{fill:#9773C0;}
	.st107{fill:#8E9093;}
	.st108{fill:#EEEFF0;}
	.st109{fill:#A2F1FF;}
	.st110{fill:#C3F6FF;}
	.st111{fill:#FFD458;}
	.st112{fill:#5CE079;}
	.st113{fill:#FFC658;}
	.st114{fill:#5CC862;}
</style>
<g>
	<path class="st111" d="M127,139.976v4l-34.422,5l-3-10l-12-11l-4,1l-1-6c0,0-5.07,3.49-11-3c-9.45-0.77-18.38,1.03-17-10l-1.7-2.22
		l1.7-4.78l-9-5c0,0-7.84-9.34-6-13c1.84-3.66,2-7,2-7h-5c0,0-4.31-3.62-4-9l1.28-0.91l3.72,1.91l-2-6l7-3l-9-1l-1,5l-6-3l1-5l-9-9
		v-4l-2-4l2-3l-7.15-9.83c-0.52-0.71-0.57-1.66-0.13-2.43l3.28-5.74v-8c0,0,2.33-3.62-1-7c0.3-1.42,1-3,1-3h47v45l71,61
		c0,0,1.33,4.03,3.04,6.97c1.37,2.36,1.28,5.28-0.35,7.46v0.01l0.31,6.56l-3,4v5L127,139.976z M57.578,83.116
		c0.02-5.62-5.02-10.06-10.8-8.94c-3.5,0.67-6.34,3.51-7.04,7.04c-0.25,1.27-0.24,2.5-0.01,3.66c0.21,1.08,0.67,2.09,1.25,3.03
		l7.54,12.08c0,0,7.56-11.65,8.2-13.01C57.268,85.806,57.578,84.496,57.578,83.116z"/>
	<path class="st112" d="M46.778,74.176c5.78-1.12,10.82,3.32,10.8,8.94c0,1.38-0.31,2.69-0.86,3.86c-0.64,1.36-8.2,13.01-8.2,13.01
		l-7.54-12.08c-0.58-0.94-1.04-1.95-1.25-3.03c-0.23-1.16-0.24-2.39,0.01-3.66C40.438,77.686,43.278,74.846,46.778,74.176z
		 M52.578,82.986c0.01-2.22-1.77-4.02-3.98-4.02c-2.21-0.01-4,1.78-4.01,4c0,2.21,1.78,4.01,3.99,4.02
		C50.778,86.996,52.578,85.206,52.578,82.986z"/>
	<g>
		<path class="st113" d="M102.578,143.976l-3-10l-12-11l-4,1l-1-6c0,0-5.07,3.49-11-3c-9.45-0.77-18.38,1.03-17-10l-1.7-2.22
			l1.7-4.78l-3.506-1.948c-1.423,2.215-2.554,3.958-2.554,3.958l-7.54-12.08c-0.58-0.94-1.04-1.95-1.25-3.03
			c-0.125-0.63-0.178-1.282-0.167-1.948c-0.312-1.141-0.372-2.177,0.017-2.952c1.84-3.66,2-7,2-7h-5c0,0-4.31-3.62-4-9v-3l-7,3l2,6
			l-3.72-1.91l-1.28,0.91c-0.31,5.38,4,9,4,9h5c0,0-0.16,3.34-2,7c-1.84,3.66,6,13,6,13l9,5l-1.7,4.78l1.7,2.22
			c-1.38,11.03,7.55,9.23,17,10c5.93,6.49,11,3,11,3l1,6l4-1l12,11l3,10l34.422-5v-3.529L102.578,143.976z"/>
		<path class="st113" d="M26.578,56.976l1-5l-9-9v-4l-2-4l2-3l-7.15-9.83c-0.52-0.71-0.57-1.66-0.13-2.43l3.28-5.74v-8
			c0,0,1.494-2.332,0.366-5H4.578c0,0-0.7,1.58-1,3c3.33,3.38,1,7,1,7v8l-3.28,5.74c-0.44,0.77-0.39,1.72,0.13,2.43l7.15,9.83l-2,3
			l2,4v4l9,9l-1,5l6,3l1-5l9,1v-1L26.578,56.976z"/>
	</g>
	<g>
		<path class="st111" d="M48.654,79.174c2.21-0.03,4.014,1.745,4.035,3.965c0.03,2.22-1.745,4.034-3.945,4.055
			c-2.21,0.02-4.014-1.755-4.045-3.965C44.679,81.009,46.444,79.194,48.654,79.174z"/>
	</g>
	<path class="st113" d="M47.7,83.229c-0.016-1.706,1.028-3.164,2.513-3.761c-0.48-0.196-1.006-0.302-1.558-0.294
		c-2.21,0.02-3.975,1.835-3.955,4.055c0.03,2.21,1.835,3.985,4.045,3.965c0.513-0.005,0.999-0.115,1.448-0.298
		C48.747,86.304,47.722,84.889,47.7,83.229z"/>
	<g>
		<path class="st114" d="M47.978,87.906c-0.225-0.365-0.425-0.745-0.606-1.131c-1.613-0.522-2.783-2.022-2.783-3.809
			c0.008-1.816,1.215-3.326,2.86-3.817c0.947-1.987,2.599-3.576,4.616-4.429c-1.583-0.673-3.393-0.911-5.287-0.544
			c-3.5,0.67-6.34,3.51-7.04,7.04c-0.25,1.27-0.24,2.5-0.01,3.66c0.21,1.08,0.67,2.09,1.25,3.03l7.54,12.08
			c0,0,1.7-2.619,3.555-5.519L47.978,87.906z"/>
	</g>
	<g>
		<path class="st45" d="M127.561,139.149l-3.983-2.703v-4.137l2.8-3.733c0.14-0.186,0.21-0.414,0.199-0.646l-0.295-6.224
			c1.639-2.432,1.727-5.633,0.2-8.262c-1.636-2.812-2.941-6.742-2.955-6.781c-0.057-0.173-0.16-0.326-0.298-0.445l-70.651-60.7
			V0.976c0-0.552-0.447-1-1-1h-47c-0.396,0-0.754,0.233-0.914,0.595C3.633,0.64,2.919,2.264,2.599,3.769
			C2.53,4.097,2.63,4.439,2.866,4.678c2.706,2.747,0.944,5.64,0.871,5.757c-0.104,0.161-0.159,0.349-0.159,0.541v7.734L0.43,24.219
			c-0.636,1.111-0.561,2.492,0.189,3.515l6.739,9.267l-1.613,2.42c-0.199,0.298-0.223,0.681-0.062,1.002l1.895,3.789v3.764
			c0,0.265,0.105,0.52,0.293,0.707l8.621,8.622l-0.895,4.475c-0.089,0.442,0.13,0.889,0.533,1.091l6,3
			c0.278,0.139,0.606,0.141,0.887,0.004s0.48-0.396,0.541-0.702l0.82-4.101l4.319,0.48l-3.514,1.506
			c-0.479,0.205-0.72,0.742-0.555,1.235l1.225,3.674l-1.539-0.791c-0.335-0.17-0.733-0.143-1.036,0.075l-1.28,0.91
			c-0.248,0.176-0.401,0.455-0.419,0.757c-0.335,5.814,4.163,9.662,4.354,9.823c0.181,0.151,0.408,0.234,0.644,0.234h3.878
			c-0.188,1.213-0.653,3.329-1.771,5.551c-2.032,4.043,4.748,12.448,6.128,14.092c0.078,0.094,0.173,0.172,0.28,0.231l8.26,4.589
			l-1.416,3.982c-0.113,0.319-0.058,0.674,0.148,0.942l1.453,1.899c-0.342,3.236,0.18,5.621,1.59,7.28
			c2.409,2.836,6.812,3.002,11.911,3.195c1.327,0.05,2.696,0.102,4.073,0.204c4.496,4.723,8.645,4.198,10.693,3.484l0.786,4.713
			c0.046,0.275,0.205,0.52,0.438,0.672c0.232,0.153,0.519,0.204,0.79,0.134l3.479-0.869l11.4,10.45l2.921,9.736
			c0.129,0.428,0.521,0.713,0.957,0.713c0.048,0,0.097-0.003,0.145-0.011l34.422-5c0.492-0.071,0.856-0.492,0.856-0.989v-4
			C128,139.645,127.836,139.334,127.561,139.149z M126,143.11l-32.712,4.752l-2.752-9.174c-0.052-0.173-0.149-0.328-0.282-0.45
			l-12-11c-0.187-0.171-0.429-0.263-0.676-0.263c-0.081,0-0.162,0.01-0.242,0.03l-2.949,0.737l-0.822-4.932
			c-0.057-0.338-0.281-0.623-0.596-0.757c-0.312-0.132-0.675-0.098-0.958,0.098c-0.043,0.028-4.414,2.927-9.694-2.852
			c-0.171-0.187-0.405-0.302-0.657-0.322c-1.55-0.126-3.072-0.184-4.545-0.239c-4.626-0.175-8.622-0.326-10.462-2.491
			c-1.086-1.278-1.439-3.289-1.082-6.148c0.032-0.261-0.038-0.523-0.198-0.731l-1.369-1.789l1.518-4.269
			c0.163-0.461-0.029-0.972-0.457-1.209l-8.837-4.91c-3.059-3.684-6.806-9.677-5.755-11.767c1.914-3.806,2.099-7.257,2.105-7.401
			c0.013-0.273-0.087-0.54-0.275-0.738c-0.188-0.197-0.45-0.31-0.724-0.31h-4.608c-0.831-0.81-3.416-3.639-3.407-7.472l0.38-0.27
			l3.179,1.632c0.36,0.186,0.799,0.135,1.108-0.131c0.309-0.265,0.426-0.689,0.297-1.075l-1.709-5.127l6.154-2.638
			c0.418-0.179,0.662-0.616,0.596-1.065s-0.428-0.797-0.879-0.847l-9-1c-0.506-0.061-0.989,0.289-1.091,0.797l-0.743,3.716
			l-4.146-2.073l0.85-4.251c0.065-0.328-0.037-0.667-0.273-0.903l-8.707-8.707v-3.586c0-0.155-0.036-0.309-0.105-0.447l-1.74-3.481
			l1.678-2.517c0.232-0.348,0.223-0.804-0.023-1.143l-7.151-9.833c-0.285-0.389-0.312-0.916-0.068-1.343l3.279-5.74
			c0.087-0.151,0.132-0.322,0.132-0.496V11.25C6.43,9.706,7.13,6.54,4.674,3.691c0.172-0.638,0.401-1.273,0.574-1.715h45.329v44
			c0,0.292,0.127,0.568,0.349,0.758l70.792,60.821c0.332,0.965,1.528,4.303,3.034,6.893c1.187,2.043,1.075,4.539-0.285,6.359
			c-0.139,0.186-0.209,0.424-0.198,0.655l0.293,6.2l-2.784,3.713c-0.13,0.173-0.2,0.383-0.2,0.6v5c0,0.331,0.164,0.642,0.438,0.827
			l3.983,2.703V143.11z"/>
		<path class="st45" d="M54.922,75.291c-2.309-1.912-5.349-2.678-8.331-2.097c-3.905,0.747-7.053,3.893-7.834,7.829
			c-0.269,1.365-0.271,2.728-0.01,4.044c0.215,1.107,0.667,2.208,1.383,3.369l7.54,12.08c0.182,0.29,0.498,0.468,0.84,0.471
			c0.003,0,0.006,0,0.009,0c0.339,0,0.654-0.171,0.839-0.456c0.777-1.198,7.615-11.747,8.267-13.129
			c0.633-1.347,0.953-2.787,0.954-4.281C58.589,80.077,57.256,77.223,54.922,75.291z M56.578,83.116
			c0,1.199-0.257,2.354-0.764,3.434c-0.408,0.867-4.304,6.97-7.28,11.573L41.83,87.381c-0.585-0.948-0.951-1.83-1.121-2.7
			c-0.211-1.063-0.207-2.164,0.01-3.271c0.624-3.144,3.135-5.656,6.25-6.252C47.513,75.052,48.054,75,48.588,75
			c1.851,0,3.605,0.627,5.059,1.831c1.872,1.55,2.94,3.839,2.932,6.281C56.578,83.114,56.578,83.115,56.578,83.116z"/>
		<path class="st45" d="M48.642,78.174c-2.751,0.027-4.968,2.298-4.942,5.068c0.038,2.74,2.279,4.951,5.008,4.951
			c0.015,0,0.031,0,0.047,0c1.33-0.013,2.577-0.545,3.51-1.5c0.938-0.959,1.443-2.226,1.425-3.563
			c-0.013-1.347-0.547-2.604-1.506-3.541C51.231,78.659,49.983,78.17,48.642,78.174z M50.834,85.296
			c-0.559,0.571-1.304,0.89-2.099,0.897c-0.009,0-0.019,0-0.027,0c-1.639,0-2.985-1.33-3.008-2.974
			c-0.016-1.664,1.314-3.03,2.964-3.046c0.015,0,0.031,0,0.046,0c0.78,0,1.517,0.299,2.076,0.846
			c0.575,0.562,0.896,1.318,0.903,2.133C51.7,83.959,51.396,84.72,50.834,85.296z"/>
	</g>
</g>
</svg>
