<?xml version="1.0" encoding="utf-8"?>
<!-- Generator: Adobe Illustrator 19.2.1, SVG Export Plug-In . SVG Version: 6.00 Build 0)  -->
<svg version="1.1" id="Layer_1" xmlns="http://www.w3.org/2000/svg" xmlns:xlink="http://www.w3.org/1999/xlink" x="0px" y="0px"
	 viewBox="0 0 94.997 150" style="enable-background:new 0 0 94.997 150;" xml:space="preserve">
<style type="text/css">
	.st0{display:none;fill:none;stroke:#FFFFFF;stroke-width:2;stroke-linecap:round;stroke-miterlimit:10;}
	.st1{fill:#D5D2E4;}
	.st2{fill:#43324E;}
	.st3{fill:#FFFFFF;}
	.st4{fill:#ECEDED;}
	.st5{fill:#E1E2E3;}
	.st6{fill:url(#SVGID_1_);}
	.st7{fill:url(#SVGID_2_);}
	.st8{fill:#414042;}
	.st9{fill:#96806A;}
	.st10{fill:#EDDFC7;}
	.st11{fill:#594A42;}
	.st12{fill:#E81C24;}
	.st13{fill:#00ADFF;}
	.st14{fill:#FFDFD7;}
	.st15{fill:#A63E45;}
</style>
<g>
	<path class="st3" d="M47.5,2C72.63,2,93,22.37,93,47.5c0,9.02-2.62,17.43-7.15,24.5L47.5,133L7.95,70.01C4.16,63.37,2,55.69,2,47.5
		C2,22.37,22.37,2,47.5,2z M69,46.5C69,34.62,59.38,25,47.5,25S26,34.62,26,46.5S35.62,68,47.5,68S69,58.38,69,46.5z"/>
	<g>
		<path class="st14" d="M19.95,70.01C16.16,63.37,14,55.69,14,47.5C14,24.405,31.208,5.344,53.5,2.406C51.535,2.147,49.535,2,47.5,2
			C22.37,2,2,22.37,2,47.5c0,8.19,2.16,15.87,5.95,22.51L47.5,133l6.004-9.55L19.95,70.01z"/>
	</g>
	<g>
		<path class="st15" d="M95,47.5C95,21.309,73.691,0,47.5,0S0,21.309,0,47.5c0,8.254,2.148,16.38,6.213,23.501
			c0.008,0.014,0.019,0.025,0.027,0.038c0.007,0.011,0.01,0.023,0.017,0.033l39.55,62.99c0.006,0.01,0.015,0.016,0.022,0.026
			c0.086,0.132,0.185,0.256,0.303,0.367c0.019,0.018,0.041,0.03,0.06,0.047c0.077,0.067,0.155,0.134,0.244,0.19
			c0.017,0.011,0.037,0.014,0.054,0.024c0.106,0.062,0.219,0.107,0.334,0.149c0.054,0.02,0.105,0.048,0.16,0.062
			c0.156,0.042,0.317,0.063,0.48,0.066c0.011,0,0.023,0.005,0.034,0.005c0.001,0,0.001,0,0.002,0s0.001,0,0.002,0
			c0.011,0,0.023-0.005,0.034-0.005c0.163-0.003,0.324-0.025,0.48-0.067c0.053-0.014,0.103-0.042,0.156-0.061
			c0.117-0.042,0.232-0.088,0.34-0.152c0.017-0.01,0.035-0.013,0.051-0.023c0.084-0.053,0.156-0.116,0.229-0.178
			c0.025-0.022,0.054-0.038,0.078-0.061c0.116-0.109,0.213-0.231,0.297-0.36c0.007-0.011,0.018-0.019,0.025-0.03l38.35-61
			c0.001-0.002,0.002-0.004,0.003-0.006C92.422,65.44,95,56.603,95,47.5z M47.5,4C71.486,4,91,23.514,91,47.5
			c0,8.345-2.363,16.443-6.834,23.421c-0.001,0.002-0.002,0.004-0.003,0.006c-0.002,0.003-0.005,0.005-0.007,0.009l-36.655,58.305
			L9.682,69.007C5.965,62.492,4,55.055,4,47.5C4,23.514,23.514,4,47.5,4z"/>
		<path class="st15" d="M47.5,70C60.458,70,71,59.458,71,46.5S60.458,23,47.5,23S24,33.542,24,46.5S34.542,70,47.5,70z M47.5,27
			C58.252,27,67,35.748,67,46.5S58.252,66,47.5,66S28,57.252,28,46.5S36.748,27,47.5,27z"/>
		<ellipse class="st15" cx="47.5" cy="147" rx="16.5" ry="3"/>
	</g>
</g>
</svg>
